<svg width="173" height="48" viewBox="0 0 173 48" fill="none" xmlns="http://www.w3.org/2000/svg">
<g clip-path="url(#clip0_1028_103)">
<path d="M52.4614 38.2086L32.3181 3.26422C31.1617 1.25044 28.9941 0 26.6717 0C25.5347 0 24.4098 0.302916 23.4203 0.876032C22.4091 1.46005 21.5999 2.28883 21.035 3.27633L19.1553 6.53328L31.0541 27.1752H18.6183L9.41085 43.1485C8.48914 44.7515 6.43767 45.3004 4.8398 44.3747C3.24314 43.4538 2.69277 41.3964 3.61448 39.7958L19.1432 12.8569L17.3252 9.70299L0.871126 38.2086C-0.923909 41.3237 0.145371 45.3247 3.25644 47.1228C4.27976 47.7165 5.39863 47.9952 6.50178 47.9952C8.75646 47.9952 10.9507 46.8283 12.1554 44.737L20.4484 30.3473H36.542L23.7784 8.20174C22.8567 6.60235 23.407 4.54616 25.0037 3.62408C25.5129 3.32965 26.0887 3.17334 26.6717 3.17334C27.868 3.17334 28.9796 3.81674 29.576 4.8515L49.7169 39.7958C50.6422 41.3964 50.0906 43.4538 48.4916 44.3747C47.9835 44.6704 47.4053 44.8254 46.8235 44.8254C45.6285 44.8254 44.5156 44.1845 43.9205 43.1485L40.4079 37.0526H20.2536L18.4247 40.2248H38.5777L41.1784 44.737C42.3384 46.7496 44.4999 48 46.8235 48C47.963 48 49.0867 47.6947 50.0773 47.1228C53.1896 45.3247 54.2577 41.3237 52.4614 38.2086V38.2086Z" fill="url(#paint0_linear_1028_103)"/>
</g>
<path d="M80.5052 15.2812L73.7084 35H69.599L78.1615 12.25H80.7865L80.5052 15.2812ZM86.1927 35L79.3802 15.2812L79.0834 12.25H81.724L90.3177 35H86.1927ZM85.8646 26.5625V29.6719H73.4896V26.5625H85.8646ZM96.2709 21.3125V35H92.5052V18.0938H96.099L96.2709 21.3125ZM101.443 17.9844L101.411 21.4844C101.182 21.4427 100.932 21.4115 100.661 21.3906C100.401 21.3698 100.141 21.3594 99.8802 21.3594C99.2344 21.3594 98.6667 21.4531 98.1771 21.6406C97.6875 21.8177 97.2761 22.0781 96.9427 22.4219C96.6198 22.7552 96.3698 23.1615 96.1927 23.6406C96.0157 24.1198 95.9115 24.6562 95.8802 25.25L95.0209 25.3125C95.0209 24.25 95.125 23.2656 95.3334 22.3594C95.5417 21.4531 95.8542 20.6562 96.2709 19.9688C96.698 19.2812 97.2292 18.7448 97.8646 18.3594C98.5105 17.974 99.2552 17.7812 100.099 17.7812C100.328 17.7812 100.573 17.8021 100.833 17.8438C101.104 17.8854 101.307 17.9323 101.443 17.9844ZM112.333 18.0938V20.8438H102.802V18.0938H112.333ZM105.552 13.9531H109.318V30.3281C109.318 30.849 109.391 31.25 109.536 31.5312C109.693 31.8021 109.906 31.9844 110.177 32.0781C110.448 32.1719 110.766 32.2188 111.13 32.2188C111.391 32.2188 111.641 32.2031 111.88 32.1719C112.12 32.1406 112.313 32.1094 112.458 32.0781L112.474 34.9531C112.161 35.0469 111.797 35.1302 111.38 35.2031C110.974 35.276 110.505 35.3125 109.974 35.3125C109.109 35.3125 108.344 35.1615 107.677 34.8594C107.01 34.5469 106.49 34.0417 106.115 33.3438C105.74 32.6458 105.552 31.7188 105.552 30.5625V13.9531ZM132.443 15.2812L125.646 35H121.536L130.099 12.25H132.724L132.443 15.2812ZM138.13 35L131.318 15.2812L131.021 12.25H133.661L142.255 35H138.13ZM137.802 26.5625V29.6719H125.427V26.5625H137.802ZM153.443 26.5156H147.521V23.4062H153.443C154.474 23.4062 155.307 23.2396 155.943 22.9062C156.578 22.5729 157.042 22.1146 157.333 21.5312C157.635 20.9375 157.786 20.2604 157.786 19.5C157.786 18.7812 157.635 18.1094 157.333 17.4844C157.042 16.849 156.578 16.3385 155.943 15.9531C155.307 15.5677 154.474 15.375 153.443 15.375H148.724V35H144.802V12.25H153.443C155.203 12.25 156.698 12.5625 157.927 13.1875C159.167 13.8021 160.109 14.6562 160.755 15.75C161.401 16.8333 161.724 18.0729 161.724 19.4688C161.724 20.9375 161.401 22.1979 160.755 23.25C160.109 24.3021 159.167 25.1094 157.927 25.6719C156.698 26.2344 155.203 26.5156 153.443 26.5156ZM169.427 12.25V35H165.505V12.25H169.427Z" fill="#AEAEB2"/>
<defs>
<linearGradient id="paint0_linear_1028_103" x1="1.35418" y1="-9.31902e-07" x2="47.2126" y2="52.5298" gradientUnits="userSpaceOnUse">
<stop stop-color="#0FEFFD"/>
<stop offset="0.723958" stop-color="#FF00F5"/>
<stop offset="1" stop-color="#0FEFFD" stop-opacity="0"/>
</linearGradient>
<clipPath id="clip0_1028_103">
<rect width="53.3333" height="48" fill="white"/>
</clipPath>
</defs>
</svg>
